<svg xmlns="http://www.w3.org/2000/svg" viewBox="0 0 100 140"><rect x="22" y="13.5" width="10" height="29" rx="3.5" fill="#146343"/><path d="M25.5 17.5v21" stroke="#fffdf3" stroke-width="1.3"/><path d="M20.5 16.5h13" stroke="#146343" stroke-width="3.2" stroke-linecap="round"/><path d="M20.5 28h13" stroke="#146343" stroke-width="3.2" stroke-linecap="round"/><path d="M20.5 39.5h13" stroke="#146343" stroke-width="3.2" stroke-linecap="round"/><rect x="68" y="13.5" width="10" height="29" rx="3.5" fill="#146343"/><path d="M71.5 17.5v21" stroke="#fffdf3" stroke-width="1.3"/><path d="M66.5 16.5h13" stroke="#146343" stroke-width="3.2" stroke-linecap="round"/><path d="M66.5 28h13" stroke="#146343" stroke-width="3.2" stroke-linecap="round"/><path d="M66.5 39.5h13" stroke="#146343" stroke-width="3.2" stroke-linecap="round"/><rect x="22" y="55.5" width="10" height="29" rx="3.5" fill="#146343"/><path d="M25.5 59.5v21" stroke="#fffdf3" stroke-width="1.3"/><path d="M20.5 58.5h13" stroke="#146343" stroke-width="3.2" stroke-linecap="round"/><path d="M20.5 70h13" stroke="#146343" stroke-width="3.2" stroke-linecap="round"/><path d="M20.5 81.5h13" stroke="#146343" stroke-width="3.2" stroke-linecap="round"/><rect x="68" y="55.5" width="10" height="29" rx="3.5" fill="#146343"/><path d="M71.5 59.5v21" stroke="#fffdf3" stroke-width="1.3"/><path d="M66.5 58.5h13" stroke="#146343" stroke-width="3.2" stroke-linecap="round"/><path d="M66.5 70h13" stroke="#146343" stroke-width="3.2" stroke-linecap="round"/><path d="M66.5 81.5h13" stroke="#146343" stroke-width="3.2" stroke-linecap="round"/><rect x="22" y="97.5" width="10" height="29" rx="3.5" fill="#146343"/><path d="M25.5 101.5v21" stroke="#fffdf3" stroke-width="1.3"/><path d="M20.5 100.5h13" stroke="#146343" stroke-width="3.2" stroke-linecap="round"/><path d="M20.5 112h13" stroke="#146343" stroke-width="3.2" stroke-linecap="round"/><path d="M20.5 123.5h13" stroke="#146343" stroke-width="3.2" stroke-linecap="round"/><rect x="68" y="97.5" width="10" height="29" rx="3.5" fill="#146343"/><path d="M71.5 101.5v21" stroke="#fffdf3" stroke-width="1.3"/><path d="M66.5 100.5h13" stroke="#146343" stroke-width="3.2" stroke-linecap="round"/><path d="M66.5 112h13" stroke="#146343" stroke-width="3.2" stroke-linecap="round"/><path d="M66.5 123.5h13" stroke="#146343" stroke-width="3.2" stroke-linecap="round"/></svg>