<svg xmlns="http://www.w3.org/2000/svg" viewBox="0 0 100 140"><path d="M79 -18Q59 -32 47 -32Q40 -32 40 -26Q40 -14 60 6Q128 72 175.5 146.0Q223 220 252.5 291.5Q282 363 298.5 422.0Q315 481 321.0 518.0Q327 555 327 559Q327 569 324 584Q324 586 323.5 587.5Q323 589 323 590Q323 602 333.0 602.0Q343 602 359.5 594.5Q376 587 389.5 575.0Q403 563 403 550Q403 547 402.5 543.5Q402 540 401 536Q363 360 286.5 217.0Q210 74 79 -18ZM987 14Q987 11 976.0 -1.0Q965 -13 951.5 -24.0Q938 -35 930 -35Q925 -35 896.0 -13.0Q867 9 823.5 55.5Q780 102 729.5 175.5Q679 249 629.5 352.0Q580 455 542 590Q529 637 521.0 659.0Q513 681 505.5 690.0Q498 699 485 708Q468 719 468 726Q468 735 496 735Q531 735 547.5 730.0Q564 725 570.5 716.0Q577 707 580 695Q585 678 591.5 655.0Q598 632 605 606Q626 537 658.0 458.0Q690 379 735.5 300.0Q781 221 840.5 150.5Q900 80 975 28Q987 21 987 14Z" transform="matrix(0.061246 0 0 -0.061246 18.550158 58.436114)" fill="#122e29"/><path d="M717 486 725 551 530 543 529 477ZM702 366 711 440 529 432 528 358ZM301 348 471 356 472 429 296 421ZM293 466 472 474 473 540 289 532ZM91 244 96 243Q122 239 140 239H151Q151 256 148.5 267.5Q146 279 139 290Q137 293 137.0 298.0Q137 303 147.0 303.0Q157 303 176 297Q197 289 203.5 282.0Q210 275 210 265V237H218L470 247V312L304 305L305 291V290Q305 285 300.0 281.5Q295 278 287 278Q277 278 260.0 286.0Q243 294 243 307V310Q243 316 244.0 323.5Q245 331 245 341V354L235 518Q234 550 220 579Q217 584 217 588Q217 593 226 593Q244 593 292 576L739 597L752 598Q761 598 775.5 587.5Q790 577 790 567Q790 563 786.5 557.5Q783 552 783 549L758 371Q788 342 788 332Q788 324 768 324L527 314V250L839 263L854 264Q871 264 879.5 253.0Q888 242 888 236Q888 231 885.0 223.5Q882 216 882 213L879 -25Q879 -34 880.0 -41.0Q881 -48 881 -53Q881 -65 867.5 -77.0Q854 -89 841 -89Q835 -89 824.0 -85.0Q813 -81 805 -79Q756 -64 714.0 -43.0Q672 -22 647.0 -2.5Q622 17 622 24Q622 30 631 30Q641 30 657 24Q731 -3 815 -19L819 215L526 203L525 101Q599 111 649 121Q634 138 616 154Q610 159 610 165Q610 173 622.0 182.5Q634 192 641 192Q653 192 691.5 151.5Q730 111 763 69Q769 63 769 55Q769 45 756.0 33.0Q743 21 735.0 21.0Q727 21 717 36L703 55L680 85Q593 66 458.0 43.5Q323 21 297 21Q283 21 271.0 30.5Q259 40 252 72V74Q252 80 260 80Q274 77 290 77Q314 78 368.5 82.5Q423 87 468 93L469 200L211 189V-69Q211 -91 195 -91Q185 -91 165 -79Q154 -72 149.5 -67.0Q145 -62 145 -56V-52Q150 -20 150 3L151 179V188H141Q121 188 114 193Q97 210 90.5 222.0Q84 234 84.0 239.0Q84 244 91 244ZM135 702 354 714 349 741Q345 764 326 779Q319 786 319 790Q319 799 350 799Q401 799 404 770L413 717L589 727L594 754Q597 771 597.0 782.5Q597 794 591.5 803.5Q586 813 586.0 817.5Q586 822 595.5 822.0Q605 822 622 815Q665 797 665 776Q665 771 664 768L651 730L801 738Q831 739 845.5 744.0Q860 749 868.0 749.0Q876 749 887 741Q914 721 914 704Q914 694 892 692L629 678Q616 650 601.0 624.0Q586 598 571 598Q561 598 561.0 611.5Q561 625 577 675L421 667L429 615L430 608Q430 591 411.5 591.0Q393 591 378.5 601.0Q364 611 364 625V648Q364 656 362 664L170 654Q163 653 158 653H147Q122 653 112.5 661.5Q103 670 95.5 683.5Q88 697 88.0 702.0Q88 707 95 707Q98 707 107.0 704.5Q116 702 135 702Z" transform="matrix(0.061246 0 0 -0.061246 19.438226 125.385428)" fill="#ad211f"/></svg>