<svg xmlns="http://www.w3.org/2000/svg" viewBox="0 0 100 140"><path d="M707 1337Q653 1326 612 1315Q610 1241 590 1199Q557 1129 472 1087Q539 1192 546 1298Q541 1296 537 1296Q431 1268 384 1239Q387 1215 493 1050Q530 1050 635 1075Q680 1085 745 1091Q809 1097 809 1078Q809 1066 796 1063L836 1026Q891 1038 980 1274Q996 1315 969.0 1342.5Q942 1370 895 1370Q833 1365 779 1354Q769 1311 769 1272Q769 1241 818 1241Q834 1241 869.5 1234.0Q905 1227 905 1209Q905 1166 809 1131Q686 1084 773 1149Q822 1187 778 1188Q745 1188 718.5 1199.5Q692 1211 699 1267ZM354 1293Q653 1413 912 1450H922Q948 1450 975 1429Q1053 1363 1100.5 1333.0Q1148 1303 1148 1268Q1148 1252 1120 1239Q1078 1220 1028 1131Q955 998 886.0 952.5Q817 907 809 930L769 1050L511 1001Q490 957 470 957Q430 957 368.0 1055.5Q306 1154 287 1197Q272 1229 247 1276Q233 1302 201 1304Q232 1338 249.5 1322.5Q267 1307 303 1303Q338 1306 354 1293Z" fill="#122e29" transform="matrix(0.07482429651799792 0 0 -0.07482429651799792 -0.4754015125197082 128.25071483926138)"/><path d="M670 521 554 498Q554 466 593 382Q626 397 671 407L670 445L620 433Q607 433 580 466Q633 466 670 477ZM723 248 819 261 786 313 723 304ZM740 534Q738 514 737 486Q800 505 800 480Q800 464 733 455L729 415L800 426Q839 490 839 509Q839 542 800 542Q789 542 740 534ZM671 590Q633 583 595 578Q552 571 546 571Q542 571 509 591Q485 605 512 611L700 644Q729 672 746.5 699.5Q764 727 777 754Q800 801 763 807Q728 797 674 722Q624 649 598 649Q541 649 539 693Q538 711 531.5 731.5Q525 752 492 816Q588 795 616 733Q674 797 705.5 817.5Q737 838 764 838Q786 837 816.0 819.5Q846 802 872.5 777.0Q899 752 893 743L737 650L832 669Q854 674 871.0 661.5Q888 649 888 632Q888 614 848 614Q811 613 733 601Q758 584 750 577Q746 573 744 560Q769 564 789 568Q865 580 869 580Q892 580 918.5 558.0Q945 536 969 508Q975 501 944 487Q915 474 883 430Q836 366 817 382Q800 395 756 389L729 385L726 340Q908 358 989 374Q1022 374 1136 293Q1167 272 1130 262Q1105 256 1048 175Q995 100 946.0 64.0Q897 28 839 27Q826 27 821.0 56.5Q816 86 750 138Q727 156 743 156Q753 156 796 140Q860 117 877 117Q902 117 981 285Q1006 337 916 329L812 317L886 267Q913 249 901 218Q892 194 865 194Q849 194 826 248Q630 162 610 156Q597 156 580 169Q516 223 540 226L670 242V299Q570 288 464 258Q474 237 490.5 199.5Q507 162 520.5 125.0Q534 88 534 69Q534 56 530.5 43.0Q527 30 511 30Q501 30 469.5 41.5Q438 53 425 88L373 236Q308 204 275 203Q235 201 205 266Q197 282 242.5 275.0Q288 268 361 278L339 325Q323 355 346 357Q399 361 419 342Q433 329 446 293Q521 306 670 332V377Q637 373 602 353Q577 339 570 339Q566 339 556 351Q528 379 511.0 417.0Q494 455 482 480Q474 496 453.0 509.0Q432 522 438 533Q444 547 477 547Q507 547 530.5 540.0Q554 533 566 533Q624 542 671 549Z" fill="#ad211f" transform="matrix(0.07482429651799792 0 0 -0.07482429651799792 -0.4754015125197082 128.25071483926138)"/></svg>