<svg xmlns="http://www.w3.org/2000/svg" viewBox="0 0 100 140"><defs><path id="seven-dots" d="M493 1Q404 1 342.0 63.0Q280 125 280 213Q280 275 311.5 324.5Q343 374 394 402Q343 429 311.5 478.5Q280 528 280 589Q280 678 342.0 740.0Q404 802 493 802Q554 802 603.5 770.5Q653 739 680 688Q730 781 841 800Q787 861 787 944Q787 957 789 971Q764 959 737.0 951.5Q710 944 680 944Q592 944 530.0 1005.5Q468 1067 468 1155Q468 1169 471 1183Q446 1171 419.5 1163.0Q393 1155 363 1155Q274 1155 212.5 1217.0Q151 1279 151 1367Q151 1456 212.5 1518.0Q274 1580 363 1580Q451 1580 512.5 1518.0Q574 1456 574 1367Q574 1353 572 1339Q597 1351 624.0 1359.0Q651 1367 680 1367Q769 1367 831.0 1305.0Q893 1243 893 1155Q893 1141 890 1126Q938 1155 999 1155Q1087 1155 1148.5 1093.5Q1210 1032 1210 944Q1210 862 1158.0 803.0Q1106 744 1026 733Q1081 672 1081 589Q1081 528 1049.5 478.5Q1018 429 968 402Q1018 374 1049.5 324.5Q1081 275 1081 213Q1081 125 1019.0 63.0Q957 1 869 1Q807 1 757.5 32.5Q708 64 680 114Q653 64 603.5 32.5Q554 1 493 1ZM363 1202Q432 1202 479.5 1250.0Q527 1298 527 1367Q527 1436 479.5 1484.0Q432 1532 363 1532Q294 1532 246.0 1484.0Q198 1436 198 1367Q198 1298 246.0 1250.0Q294 1202 363 1202ZM363 1238Q309 1238 271.0 1276.0Q233 1314 233 1367Q233 1420 271.0 1458.5Q309 1497 363 1497Q415 1497 454.0 1458.5Q493 1420 493 1367Q493 1314 454.0 1276.0Q415 1238 363 1238ZM343 1423Q352 1425 363 1425Q373 1425 381 1423L398 1425L412 1445L405 1463Q383 1473 363 1473Q342 1473 320 1463L313 1445L327 1425ZM273 1344Q295 1347 304 1367Q304 1377 305.5 1382.5Q307 1388 310 1393Q312 1396 314.0 1402.0Q316 1408 318 1419L304 1438H282Q257 1406 257 1367V1358ZM452 1344 468 1358V1367Q468 1406 443 1438H421L407 1419Q409 1408 411.0 1402.0Q413 1396 416 1393Q418 1388 419.5 1382.5Q421 1377 421 1367L430 1351ZM363 1332Q376 1332 387.0 1342.5Q398 1353 398 1367Q398 1381 387.0 1391.5Q376 1402 363 1402Q348 1402 337.5 1391.5Q327 1381 327 1367Q327 1353 337.5 1342.5Q348 1332 363 1332ZM363 1355Q352 1355 351 1367Q351 1377 363 1378Q373 1378 374 1367Q374 1356 363 1355ZM338 1263 358 1275V1299L347 1310Q326 1316 313 1335L299 1342L278 1335L271 1313Q296 1276 338 1263ZM386 1263Q429 1276 455 1313L448 1335L426 1342Q419 1339 406.5 1329.5Q394 1320 382.0 1311.0Q370 1302 367 1299V1275ZM680 991Q749 991 797.5 1038.5Q846 1086 846 1155Q846 1224 797.5 1272.0Q749 1320 680 1320Q611 1320 563.5 1272.0Q516 1224 516 1155Q516 1086 563.5 1038.5Q611 991 680 991ZM680 1025Q627 1025 589.0 1063.5Q551 1102 551 1155Q551 1208 589.0 1246.5Q627 1285 680 1285Q733 1285 771.5 1246.5Q810 1208 810 1155Q810 1102 771.5 1063.5Q733 1025 680 1025ZM662 1212Q670 1214 680 1214Q692 1214 700 1212L716 1214L729 1233L723 1252Q702 1261 680 1261Q659 1261 637 1252L631 1233L646 1214ZM591 1131Q613 1135 621 1155Q621 1165 623.0 1170.0Q625 1175 627 1180Q629 1184 631.0 1190.0Q633 1196 635 1207L621 1225H601Q574 1193 574 1155V1146ZM770 1131 787 1146V1155Q787 1193 761 1225H740L725 1207Q727 1196 729.0 1190.0Q731 1184 734 1179Q736 1175 738.0 1170.0Q740 1165 740 1155L749 1139ZM680 1120Q695 1120 705.5 1130.5Q716 1141 716 1155Q716 1169 705.5 1180.0Q695 1191 680 1191Q666 1191 656.0 1180.0Q646 1169 646 1155Q646 1141 656.0 1130.5Q666 1120 680 1120ZM680 1144Q670 1144 669 1155Q669 1166 680 1167Q692 1167 693 1155Q693 1145 680 1144ZM657 1052 675 1063V1087L664 1099Q645 1105 631 1122L617 1129L596 1122L588 1101Q614 1063 657 1052ZM704 1052Q747 1063 772 1101L765 1122L744 1129Q737 1126 724.5 1117.0Q712 1108 700.0 1099.0Q688 1090 685 1087V1063ZM999 778Q1068 778 1115.5 826.5Q1163 875 1163 944Q1163 1012 1115.5 1060.0Q1068 1108 999 1108Q930 1108 881.5 1060.0Q833 1012 833 944Q833 875 881.5 826.5Q930 778 999 778ZM999 814Q945 814 907.0 852.0Q869 890 869 944Q869 996 907.0 1034.0Q945 1072 999 1072Q1051 1072 1089.0 1034.0Q1127 996 1127 944Q1127 890 1089.0 852.0Q1051 814 999 814ZM979 1000Q988 1002 999 1002Q1009 1002 1017 1000L1034 1002L1048 1021L1041 1040Q1019 1049 999 1049Q978 1049 956 1040L949 1021L963 1002ZM909 919Q931 922 940 944Q940 953 941.5 958.5Q943 964 945 968Q948 972 950.0 978.0Q952 984 954 995L940 1014H918Q893 982 893 944V933ZM1088 919 1104 933V944Q1104 982 1078 1014H1057L1043 995Q1045 984 1047.5 978.0Q1050 972 1052 968Q1054 964 1055.5 958.5Q1057 953 1057 944L1066 926ZM999 908Q1012 908 1023.0 918.5Q1034 929 1034 944Q1034 957 1023.0 967.5Q1012 978 999 978Q984 978 973.5 967.5Q963 957 963 944Q963 929 973.5 918.5Q984 908 999 908ZM999 931Q988 931 987 944Q987 954 999 955Q1009 955 1010 944Q1010 932 999 931ZM974 839 994 852V875L982 886Q961 894 949 910L935 917L913 910L907 888Q932 852 974 839ZM1022 839Q1065 852 1091 888L1084 910L1062 917Q1055 914 1042.5 905.0Q1030 896 1018.0 886.5Q1006 877 1003 875V852ZM493 425Q561 425 609.0 473.0Q657 521 657 589Q657 658 609.0 706.5Q561 755 493 755Q424 755 375.5 706.5Q327 658 327 589Q327 521 375.5 473.0Q424 425 493 425ZM869 425Q938 425 986.0 473.0Q1034 521 1034 589Q1034 658 986.0 706.5Q938 755 869 755Q800 755 752.0 706.5Q704 658 704 589Q704 521 752.0 473.0Q800 425 869 425ZM493 461Q439 461 401.0 499.0Q363 537 363 589Q363 643 401.0 681.0Q439 719 493 719Q545 719 583.0 681.0Q621 643 621 589Q621 537 583.0 499.0Q545 461 493 461ZM869 461Q816 461 778.0 499.0Q740 537 740 589Q740 643 778.0 681.0Q816 719 869 719Q922 719 960.5 681.0Q999 643 999 589Q999 537 960.5 499.0Q922 461 869 461ZM473 647Q480 649 493 649Q503 649 511 647L527 649L542 668L534 686Q513 696 493 696Q470 696 450 686L443 668L457 649ZM850 647Q858 649 869 649Q879 649 888 647L904 649L918 668L911 686Q889 696 869 696Q848 696 826 686L819 668L833 649ZM403 566Q425 569 433 589Q433 600 434.5 605.5Q436 611 439 615Q441 619 443.5 625.0Q446 631 448 641L433 661H412Q386 629 386 589V580ZM581 566 598 580V589Q598 629 572 661H551L536 641Q538 631 540.5 625.0Q543 619 545 615Q548 611 549.5 605.5Q551 600 551 589L560 573ZM779 566Q802 569 810 589Q810 600 811.5 605.5Q813 611 816 615Q818 619 820.0 625.0Q822 631 824 641L810 661H789Q763 629 763 589V580ZM958 566 974 580V589Q974 629 949 661H927L913 641Q915 631 917.0 625.0Q919 619 922 615Q924 611 925.5 605.5Q927 600 927 589L938 573ZM493 555Q506 555 516.5 565.5Q527 576 527 589Q527 604 516.5 614.5Q506 625 493 625Q478 625 467.5 614.5Q457 604 457 589Q457 576 467.5 565.5Q478 555 493 555ZM869 555Q883 555 893.5 565.5Q904 576 904 589Q904 604 893.5 614.5Q883 625 869 625Q855 625 844.0 614.5Q833 604 833 589Q833 576 844.0 565.5Q855 555 869 555ZM493 578Q480 578 480 589Q480 601 493 602Q503 602 504 589Q504 579 493 578ZM869 578Q858 578 857 589Q857 601 869 602Q879 602 880 589Q880 579 869 578ZM468 486 487 499V522L475 533Q456 539 443 557L428 564L407 557L401 535Q425 499 468 486ZM516 486Q559 499 583 535L577 557L556 564Q549 561 536.5 552.0Q524 543 512.0 533.5Q500 524 497 522V499ZM846 486 864 499V522L853 533Q832 539 819 557L805 564L784 557L777 535Q802 499 846 486ZM893 486Q935 499 961 535L954 557L932 564Q925 561 912.5 552.0Q900 543 888.0 533.5Q876 524 873 522V499ZM680 312Q712 369 772 402Q712 434 680 491Q649 434 588 402Q649 369 680 312ZM493 48Q561 48 609.0 96.0Q657 144 657 213Q657 282 609.0 330.0Q561 378 493 378Q424 378 375.5 330.0Q327 282 327 213Q327 144 375.5 96.0Q424 48 493 48ZM869 48Q938 48 986.0 96.0Q1034 144 1034 213Q1034 282 986.0 330.0Q938 378 869 378Q800 378 752.0 330.0Q704 282 704 213Q704 144 752.0 96.0Q800 48 869 48ZM493 83Q439 83 401.0 121.5Q363 160 363 213Q363 266 401.0 304.0Q439 342 493 342Q545 342 583.0 304.0Q621 266 621 213Q621 160 583.0 121.5Q545 83 493 83ZM869 83Q816 83 778.0 121.5Q740 160 740 213Q740 266 778.0 304.0Q816 342 869 342Q922 342 960.5 304.0Q999 266 999 213Q999 160 960.5 121.5Q922 83 869 83ZM473 270Q480 272 493 272Q503 272 511 270L527 272L542 290L534 310Q513 319 493 319Q470 319 450 310L443 290L457 272ZM850 270Q858 272 869 272Q879 272 888 270L904 272L918 290L911 310Q889 319 869 319Q848 319 826 310L819 290L833 272ZM403 189Q425 192 433 213Q433 223 434.5 228.0Q436 233 439 238Q441 242 443.5 248.0Q446 254 448 265L433 284H412Q386 251 386 213V204ZM581 189 598 204V213Q598 251 572 284H551L536 265Q538 254 540.5 248.0Q543 242 545 238Q548 234 549.5 228.5Q551 223 551 213L560 196ZM779 189Q802 192 810 213Q810 223 811.5 228.0Q813 233 815 238Q818 242 820.0 248.0Q822 254 824 265L810 284H789Q763 251 763 213V204ZM958 189 974 204V213Q974 251 949 284H927L913 265Q915 254 917.5 248.0Q920 242 922 238Q924 233 925.5 228.0Q927 223 927 213L938 196ZM493 178Q506 178 516.5 188.5Q527 199 527 213Q527 227 516.5 237.5Q506 248 493 248Q478 248 467.5 237.5Q457 227 457 213Q457 199 467.5 188.5Q478 178 493 178ZM869 178Q883 178 893.5 188.5Q904 199 904 213Q904 227 893.5 237.5Q883 248 869 248Q855 248 844.0 237.5Q833 227 833 213Q833 199 844.0 188.5Q855 178 869 178ZM493 201Q487 201 483.5 204.5Q480 208 480 213Q480 224 493 225Q503 225 504 213Q504 208 501.0 204.5Q498 201 493 201ZM869 201Q863 201 860.0 204.5Q857 208 857 213Q857 224 869 225Q879 225 880 213Q880 208 877.0 204.5Q874 201 869 201ZM468 110 487 121V144L475 157Q456 163 443 180L428 187L407 180L401 159Q425 122 468 110ZM516 110Q559 122 583 159L577 180L556 187Q549 184 536.5 175.0Q524 166 512.0 156.5Q500 147 497 144V121ZM846 110 864 121V144L853 157Q832 163 819 180L805 187L784 180L777 159Q802 122 846 110ZM893 110Q935 122 961 159L954 180L932 187Q925 184 912.5 175.0Q900 166 888.0 156.5Q876 147 873 144V121Z"/><clipPath id="lower-dots"><rect x="0" y="-200" width="1400" height="970"/></clipPath></defs><g transform="matrix(0.075 0 0 -0.075 -1.0375000000000014 129.2875)"><use href="#seven-dots" fill="#146343"/><use href="#seven-dots" fill="#ad211f" clip-path="url(#lower-dots)"/></g></svg>
