<svg xmlns="http://www.w3.org/2000/svg" viewBox="0 0 100 140"><path d="M413 1557Q438 1539 433 1524Q427 1506 418 1493Q406 1474 394 1453Q453 1461 482 1466Q508 1470 538 1458Q581 1439 581 1426Q581 1404 560 1405Q546 1405 499 1424Q484 1430 470.0 1431.0Q456 1432 449 1432Q415 1432 381 1426Q326 1384 310 1384Q333 1403 343 1421Q296 1408 163 1368Q137 1368 108 1393Q96 1404 107 1403Q153 1395 176 1400Q260 1418 284 1431Q242 1495 238 1539L253 1532Q273 1523 299 1482Q359 1518 378 1571Q393 1571 413 1557ZM305 1468Q307 1455 307 1437L332 1442Q351 1446 354 1460Q356 1468 360 1497Q309 1472 305 1468ZM347 1348Q371 1338 367 1317Q382 1321 418 1333Q427 1333 435 1322Q439 1315 431.5 1312.5Q424 1310 366 1295Q363 1281 362 1266Q384 1272 396.5 1278.0Q409 1284 412 1284Q417 1284 460 1263Q473 1256 465 1247Q457 1238 449 1201Q443 1168 429 1168Q423 1168 413.0 1178.5Q403 1189 363 1179V1167Q418 1148 440 1145Q448 1144 456.5 1138.5Q465 1133 463 1126Q461 1118 442 1118Q416 1118 363 1158Q363 1117 365 1085Q366 1075 359.0 1066.5Q352 1058 349 1058Q341 1058 331 1106Q339 1132 339 1150Q286 1089 226 1094Q311 1139 333 1171L310 1160Q279 1143 273 1153Q243 1208 228 1235Q221 1247 226 1247Q236 1247 260 1225Q260 1236 340 1259Q341 1274 340 1289Q310 1284 291.5 1275.5Q273 1267 266 1272Q247 1288 247 1289Q247 1294 286 1299Q309 1302 339 1310Q339 1323 335 1335Q329 1356 347 1348ZM174 1332Q214 1322 214 1303Q204 1207 217 1085Q221 1048 187 1048Q176 1048 176 1072Q180 1178 180.0 1182.5Q180 1187 168 1314Q166 1334 174 1332ZM363 1250V1197Q387 1204 406 1202Q415 1201 423 1197Q434 1232 434 1239V1245Q434 1249 418 1258Q406 1265 363 1250ZM261 1222Q278 1185 287 1169Q321 1183 339 1192Q339 1217 340 1243Q281 1218 261 1222ZM331 1220Q317 1196 312.0 1192.5Q307 1189 302 1189Q294 1189 276 1207Q311 1207 331 1220ZM399 1251Q419 1251 415 1244Q399 1214 369 1206Q383 1223 393 1243Q397 1251 399 1251ZM493 1391Q498 1389 504 1389Q513 1389 518.0 1383.5Q523 1378 523 1375Q523 1369 517.5 1350.0Q512 1331 512.0 1314.0Q512 1297 514 1218Q517 1153 522.5 1119.5Q528 1086 518 1077Q511 1070 503.0 1054.5Q495 1039 485 1039Q482 1039 454 1079Q440 1098 430 1106L461 1097Q481 1091 481 1137Q481 1242 478 1323Q476 1371 452 1370Q442 1370 416 1359Q385 1347 358 1360Q339 1369 333 1368Q316 1365 285 1346Q293 1338 292 1325Q291 1315 281 1314Q268 1313 257 1332Q236 1324 229 1328Q223 1330 212 1338Q229 1341 249 1349Q245 1360 235 1378Q259 1376 276 1360Q324 1378 340 1380Q355 1382 376 1371Q400 1358 453 1398Q471 1410 484 1398Q489 1393 493 1391ZM367 364Q349 330 315 330Q253 330 208.0 381.5Q163 433 163 501Q268 521 328.5 464.5Q389 408 367 364ZM1081 293Q1061 293 1061 333Q1061 372 1027 372Q1010 372 980 362Q951 352 925 352Q849 352 849 415Q849 435 863 477Q877 520 877 537Q877 572 844 580Q823 585 823 602Q823 621 851 619Q922 614 922 558Q922 543 919 526Q987 574 1047 574Q1073 574 1104 562Q1104 469 1027 415Q1109 415 1109 352Q1109 293 1081 293ZM311 367Q334 367 334 390Q334 416 296.5 447.0Q259 478 200 472Q206 438 241.5 402.5Q277 367 311 367ZM313 391Q288 393 265.0 411.0Q242 429 231 450Q258 447 281.5 429.5Q305 412 313 391ZM931 409Q970 409 1013.0 451.5Q1056 494 1058 534Q1014 547 958.0 510.5Q902 474 902 435Q902 409 931 409ZM930 435Q929 461 970.5 490.5Q1012 520 1033 515Q1029 495 992.5 463.5Q956 432 930 435ZM734 176Q730 145 737.5 128.5Q745 112 769 82Q797 47 785 31Q770 12 749 12Q738 12 730 21Q667 89 632 126Q587 171 544 171Q480 171 379 87Q400 145 444.5 181.0Q489 217 550 217Q584 217 617 195Q580 266 549 281Q512 300 473.0 314.5Q434 329 386 343Q376 346 379 360Q382 373 393 372Q466 366 552 325Q513 391 466 527Q402 713 304 713Q242 713 138 618Q162 693 215.5 731.0Q269 769 316 769Q460 769 522 531Q507 716 454 825Q401 941 282 950Q328 969 362 969Q452 969 510.0 865.0Q568 761 568 607V521Q568 378 621 286Q579 426 579 544Q579 619 601.5 743.0Q624 867 703.5 1009.0Q783 1151 783 1234Q783 1330 745 1476Q871 1355 871 1231Q871 1127 800.0 1016.5Q729 906 710 837Q809 939 951 939Q1089 939 1135 852Q969 912 866.5 871.0Q764 830 707.0 762.5Q650 695 637 596Q738 759 920 759Q1010 759 1086.0 710.5Q1162 662 1208 560Q1120 635 1062.5 663.0Q1005 691 940 691Q857 691 798.5 672.0Q740 653 692.5 593.5Q645 534 645 471Q645 325 698 197Q708 269 738 310Q767 350 799.5 371.0Q832 392 848 380Q862 370 842 355Q790 316 766 281Q742 243 734 176Z" fill="#146343" transform="matrix(0.07231567363622071 0 0 -0.07231567363622071 2.6426662474453764 127.23785568306869)"/></svg>
